<svg width="53" height="44" viewBox="0 0 53 44" fill="none" xmlns="http://www.w3.org/2000/svg">
<path d="M42.182 27.4535C42.182 28.5589 42.082 28.7431 40.7822 28.651C40.0823 28.651 39.8823 28.4668 39.8823 27.822C39.8823 27.5456 39.8823 27.3614 39.8823 27.085C39.8823 26.4402 39.9823 26.3481 40.6822 26.3481C40.7822 26.3481 40.7822 26.3481 40.8822 26.3481C42.082 26.3481 42.182 26.4402 42.182 27.4535Z" fill="black"/>
<path d="M2.2876 38.2309C2.18762 40.3496 3.48744 41.7313 5.78712 41.9155C6.98695 42.0076 8.18678 41.7313 9.28663 41.1786C9.78656 40.9023 9.98653 41.0865 10.2865 41.4549C10.6864 42.0076 10.6864 42.284 10.2865 42.5603C9.88654 42.8367 9.48655 43.0209 8.98662 43.2051C7.38684 43.6657 5.68712 43.7578 4.08734 43.3893C2.28759 43.0209 1.08776 42.0076 0.58783 40.4417C-0.0120858 38.5073 -0.0121102 36.5728 0.687792 34.6384C1.28771 32.8882 2.68754 31.875 4.58727 31.5986C5.28717 31.5065 6.08705 31.5065 6.88694 31.5986C8.88666 31.7829 10.0865 32.8882 10.5864 34.6384C10.8864 35.4674 10.8864 36.3886 10.9863 37.3098C11.0863 37.9546 10.4865 38.4152 9.78656 38.4152C7.58686 38.4152 5.28717 38.4152 3.08748 38.4152C2.68754 38.2309 2.48758 38.2309 2.2876 38.2309ZM8.58671 36.5729C8.58671 35.2832 8.4867 34.0858 7.18688 33.3488C5.98705 32.704 4.78722 32.7961 3.68737 33.4409C2.68751 33.9936 2.08763 35.5596 2.2876 36.5729C4.38731 36.5729 6.38702 36.5729 8.58671 36.5729Z" fill="black"/>
<path d="M31.6835 38.9679C31.4835 39.1521 31.3835 39.3363 31.2835 39.4285C30.3837 40.626 29.5837 41.7313 28.6839 42.9288C28.2839 43.3894 26.9841 43.6658 26.4842 43.2973C26.3842 43.2052 26.3842 42.9289 26.4842 42.7446C26.8841 42.1919 27.2841 41.6392 27.684 41.1787C28.5839 39.9812 29.3838 38.8758 30.2837 37.6783C30.4837 37.402 30.4837 37.2177 30.2837 36.9413C29.1838 35.4675 28.084 33.9016 26.8841 32.4278C26.3842 31.7829 26.5842 31.5987 27.3841 31.5066C28.2839 31.4145 28.9839 31.5987 29.5838 32.4278C30.1837 33.3489 30.8836 34.27 31.5835 35.0991C31.6835 35.1912 31.7834 35.3754 31.9834 35.5596C32.0834 35.3754 32.2834 35.1912 32.3834 35.0991C33.1833 34.0858 33.9832 32.9804 34.7831 31.9672C35.083 31.5066 36.5828 31.3224 36.9827 31.6908C37.0827 31.783 37.0827 32.1514 36.9827 32.2435C36.5828 32.8883 36.0829 33.5331 35.5829 34.1779C34.883 35.0991 34.2831 36.0202 33.5832 36.8493C33.3832 37.1256 33.3832 37.3098 33.5832 37.5862C34.783 39.1521 35.9829 40.8102 37.1827 42.3762C37.2827 42.5604 37.4827 42.9289 37.3827 43.021C37.2827 43.2052 36.8827 43.2973 36.6828 43.2973C35.7829 43.3894 35.083 43.2052 34.5831 42.3762C33.8832 41.2708 33.0833 40.3496 32.2834 39.3364C31.9834 39.2443 31.8834 39.1521 31.6835 38.9679Z" fill="black"/>
<path d="M13.9859 33.9015C13.9859 31.6908 13.9859 29.3879 13.9859 27.1772C13.9859 26.5324 14.0859 26.4402 14.7858 26.4402C14.9858 26.4402 15.0858 26.4402 15.2858 26.4402C15.8857 26.4402 15.9856 26.6245 15.9856 27.1772C15.9856 29.8485 15.9856 32.5198 15.9856 35.1912C15.9856 36.8492 15.9856 38.5073 15.9856 40.1653C15.9856 40.3496 15.9856 40.6259 15.9856 40.8101C16.1856 41.6392 16.5855 41.9155 17.4854 41.9155C17.5854 41.9155 17.6854 41.9155 17.7854 41.9155C18.5853 41.8234 18.8852 42.0998 18.8852 42.8367C18.8852 43.0209 18.5853 43.2972 18.3853 43.3894C16.1856 44.2184 13.9859 42.8367 13.9859 40.7181C13.9859 38.6915 13.9859 36.665 13.9859 34.6384C13.9859 34.27 13.9859 34.0858 13.9859 33.9015Z" fill="black"/>
<path d="M48.3812 32.9804C48.6811 32.704 48.8811 32.4277 49.181 32.1514C49.8809 31.5066 50.7808 31.2302 51.7807 31.4144C52.0807 31.5065 52.5806 31.6908 52.5806 31.875C52.5806 32.3356 52.4806 32.7961 52.3806 33.2567C52.3806 33.2567 52.0806 33.3488 51.8807 33.2567C50.7808 32.8883 49.881 33.1646 49.0811 33.9015C48.6811 34.27 48.5811 34.5463 48.5811 35.099C48.5811 37.5861 48.5811 39.9811 48.5811 42.4682C48.5811 42.7446 48.6811 43.1131 48.1812 43.2052C47.6812 43.2973 47.0813 43.3894 46.6814 43.0209C46.5814 42.9288 46.5814 42.6524 46.5814 42.4682C46.5814 39.889 46.5814 37.3098 46.5814 34.8227C46.5814 33.9937 46.4814 33.1646 46.3814 32.3356C46.2815 31.875 46.4814 31.6908 46.8814 31.5987C47.7812 31.3223 48.0812 31.5065 48.2812 32.3356C48.2812 32.6119 48.3812 32.7962 48.3812 32.9804Z" fill="black"/>
<path d="M39.9823 37.494C39.9823 35.7438 39.9823 33.9936 39.9823 32.3355C39.9823 31.6907 40.0823 31.5986 40.7822 31.5986C40.9822 31.5986 41.2821 31.5986 41.4821 31.5986C41.882 31.5986 42.082 31.7829 42.082 32.2434C42.082 35.7438 42.082 39.3363 42.082 42.8367C42.082 43.2972 41.882 43.4815 41.4821 43.4815C41.2821 43.4815 40.9822 43.4815 40.6822 43.4815C40.1823 43.4815 39.9823 43.2051 39.9823 42.7446C39.9823 40.9023 39.9823 39.1521 39.9823 37.494Z" fill="black"/>
<path d="M23.5846 37.4941C23.5846 39.2442 23.5846 40.9023 23.5846 42.6525C23.5846 43.2052 23.4846 43.3894 22.7847 43.3894C22.5848 43.3894 22.3848 43.3894 22.1848 43.3894C21.7848 43.3894 21.5849 43.1131 21.5849 42.7446C21.5849 39.2443 21.5849 35.6518 21.5849 32.1514C21.5849 31.7829 21.7848 31.5066 22.1848 31.5066C22.3848 31.5066 22.6847 31.5066 22.8847 31.5066C23.4846 31.5987 23.5846 31.6908 23.5846 32.2435C23.5846 33.9937 23.5846 35.7439 23.5846 37.4941Z" fill="black"/>
<path d="M23.6846 27.4536C23.6846 28.559 23.5846 28.6511 22.3848 28.6511C21.5849 28.6511 21.4849 28.4669 21.4849 27.8221C21.4849 27.5458 21.4849 27.3616 21.4849 27.0852C21.4849 26.6246 21.6848 26.4404 22.1848 26.4404C22.2848 26.4404 22.3847 26.4404 22.4847 26.4404C23.5846 26.3483 23.6846 26.3483 23.6846 27.4536Z" fill="black"/>
<path d="M26.4841 0.371704C26.4841 0.371704 16.4855 8.38565 18.4853 16.676C19.4851 20.8212 23.7846 23.6768 28.2839 22.9399C31.1835 22.4793 34.0831 20.5449 34.2831 14.9258C34.583 8.84626 25.0843 6.5434 26.4841 0.371704Z" fill="black"/>
</svg>
