<svg width="162" height="32" viewBox="0 0 162 32" fill="none" xmlns="http://www.w3.org/2000/svg">
<path d="M40.8845 6.37212H46.9837C52.4829 6.37212 55.4825 8.1223 55.4825 11.4384C55.4825 13.9255 53.5827 15.5836 50.1832 15.9521V16.0442C53.3828 16.2284 54.8826 17.4259 54.8826 20.3736V21.6632C54.8826 23.0449 55.1825 24.0582 55.7824 24.8872H51.983C51.483 24.3345 51.1831 23.4134 51.1831 21.9395V20.6499C51.1831 18.1628 50.1832 17.2417 47.5836 17.2417H44.784V21.2947C44.784 23.2291 43.0842 24.7951 40.9845 24.7951V6.37212H40.8845ZM44.684 8.95133V14.6625H46.8837C49.9832 14.6625 51.483 13.7413 51.483 11.8069C51.483 9.87248 49.9832 8.95133 46.8837 8.95133H44.684Z" fill="white"/>
<path d="M56.9823 21.7553C56.9823 18.9918 60.0818 18.347 62.7815 18.0707C64.6812 17.8865 65.3811 17.7944 65.3811 16.5969C65.3811 15.4915 64.6812 14.9388 63.0814 14.9388C61.5816 14.9388 60.5818 15.4915 59.9818 16.4126L57.6822 15.123C58.682 13.3728 60.8817 12.4517 63.4814 12.4517C66.7809 12.4517 68.8806 13.9255 68.8806 17.0574V21.6632C68.8806 23.4134 67.3808 24.7951 65.4811 24.7951V22.9528C64.7812 24.3345 63.2814 25.0714 61.2817 25.0714C58.582 25.0714 56.9823 23.7818 56.9823 21.7553ZM65.3811 19.913V18.8076C64.9811 19.4524 64.3812 19.6367 63.1814 19.8209C61.8816 20.0051 60.3818 20.1893 60.3818 21.4789C60.3818 22.4001 60.9817 22.9528 62.3815 22.9528C64.0813 22.9528 65.3811 22.0316 65.3811 19.913Z" fill="white"/>
<path d="M69.7805 12.728H72.1801V11.5305C72.1801 7.84595 74.4798 6.09576 77.4794 6.09576C79.2791 6.09576 80.8789 6.74057 81.6788 8.12229L79.2791 9.68825C78.7792 9.04344 77.9793 8.49075 77.0795 8.49075C75.9796 8.49075 75.1797 9.04344 75.1797 10.7936C75.1797 11.3463 75.2797 12.0832 75.4797 12.6359H79.0792V15.123H75.5797V21.5711C75.5797 23.3213 74.0799 24.7951 72.0802 24.7951V15.123H69.6805V12.728H69.7805Z" fill="white"/>
<path d="M78.7792 21.7553C78.7792 18.9918 81.8788 18.347 84.5784 18.0707C86.4782 17.8865 87.1781 17.7944 87.1781 16.5969C87.1781 15.4915 86.4781 14.9388 84.8784 14.9388C83.3786 14.9388 82.3787 15.4915 81.7788 16.4126L79.4791 15.123C80.479 13.3728 82.6787 12.4517 85.2783 12.4517C88.5779 12.4517 90.6776 13.9255 90.6776 17.0574V21.6632C90.6776 23.4134 89.1778 24.7951 87.278 24.7951V22.9528C86.5781 24.3345 85.0784 25.0714 83.0786 25.0714C80.479 25.0714 78.7792 23.7818 78.7792 21.7553ZM87.278 19.913V18.8076C86.8781 19.4524 86.2782 19.6367 85.0784 19.8209C83.7785 20.0051 82.2787 20.1893 82.2787 21.4789C82.2787 22.4001 82.8787 22.9528 84.2785 22.9528C85.9782 22.9528 87.278 22.0316 87.278 19.913Z" fill="white"/>
<path d="M92.4773 18.8076C92.4773 15.3994 95.6769 12.4517 99.2763 12.4517C102.876 12.4517 105.775 15.2151 105.775 19.2682H96.0768C96.1768 21.1105 97.5766 22.5843 99.9762 22.5843C100.776 22.5843 101.476 22.4001 102.076 22.1238C103.176 21.4789 104.476 21.3868 105.675 21.9395L105.775 22.0316C104.776 23.8739 102.776 25.0714 99.9762 25.0714C95.5769 25.0714 92.4773 22.2159 92.4773 18.8076ZM96.0768 17.4259H102.276C102.076 15.8599 100.976 14.5703 99.1764 14.5703C97.3766 14.5703 96.2768 15.9521 96.0768 17.4259Z" fill="white"/>
<path d="M107.675 6.37211H108.875C110.075 6.37211 110.675 6.37211 111.175 6.18788V21.6632C111.175 23.4134 109.675 24.8872 107.675 24.8872V6.37211Z" fill="white"/>
<path d="M118.174 18.7155C118.174 15.3073 121.173 12.4517 124.373 12.4517C126.373 12.4517 128.072 13.5571 128.772 15.123V6.37211H129.972C131.172 6.37211 131.772 6.37211 132.272 6.18788V21.6632C132.272 23.4134 130.772 24.8872 128.772 24.8872V22.4922C128.072 24.0582 126.373 25.1635 124.373 25.1635C121.073 25.0714 118.174 22.2159 118.174 18.7155ZM128.872 18.7155C128.872 16.5969 127.172 15.0309 125.273 15.0309C123.273 15.0309 121.673 16.5047 121.673 18.7155C121.673 20.8341 123.273 22.4001 125.273 22.4001C127.172 22.4001 128.872 20.8341 128.872 18.7155Z" fill="white"/>
<path d="M133.971 18.8076C133.971 15.3994 137.171 12.4517 140.771 12.4517C144.37 12.4517 147.27 15.2151 147.27 19.2682H137.571C137.671 21.1105 139.071 22.5843 141.47 22.5843C142.27 22.5843 142.97 22.4001 143.57 22.1238C144.67 21.4789 145.97 21.3868 147.17 21.9395L147.27 22.0316C146.27 23.8739 144.27 25.0714 141.47 25.0714C137.071 25.0714 133.971 22.2159 133.971 18.8076ZM137.571 17.4259H143.77C143.57 15.8599 142.47 14.5703 140.671 14.5703C138.871 14.5703 137.771 15.9521 137.571 17.4259Z" fill="white"/>
<path d="M146.97 12.728H150.469L154.169 21.2947L156.668 15.3994C157.368 13.7413 159.068 12.6359 161.068 12.6359L155.568 24.703H152.369L146.97 12.728Z" fill="white"/>
<path d="M116.874 24.7951H112.974V21.2026C115.174 21.2026 116.874 22.7686 116.874 24.7951Z" fill="#1D4ED8"/>
<path d="M34.3854 10.7936V10.1488C34.3854 7.38538 33.1856 4.80616 31.1859 2.96387C29.1861 1.12157 26.3865 0.0161896 23.387 0.0161896V10.0567C22.987 4.43771 17.8877 0.0161896 11.6886 0.0161896H0.390167V20.8342C0.390167 26.5453 5.38947 31.151 11.5886 31.151V21.5711C11.8886 26.9137 16.6879 31.151 22.5871 31.151H34.2854V21.0184H24.1868C29.886 20.5578 34.3854 16.1363 34.3854 10.7936ZM23.287 20.9263H11.5886V10.7936H23.287V20.9263Z" fill="#1D4ED8"/>
</svg>
