<svg width="43" height="44" viewBox="0 0 43 44" fill="none" xmlns="http://www.w3.org/2000/svg">
<path d="M13.4964 39.7049C14.5962 39.2443 15.4961 38.7837 16.396 38.5074C16.596 38.4153 16.8959 38.5995 17.1959 38.6916C18.3957 39.3364 19.5956 39.9812 20.7954 40.626C21.2954 40.9024 21.6953 40.9024 22.1952 40.626C27.6944 37.6783 33.2937 34.7307 38.7929 31.783C39.1929 31.5988 39.3928 31.2303 39.3928 30.8619C39.3928 24.9665 39.3928 18.979 39.3928 13.0837C39.3928 12.8074 39.0929 12.3468 38.7929 12.1625C33.2937 9.21487 27.6944 6.26716 22.1952 3.31949C21.6953 3.04314 21.2954 3.13526 20.7954 3.31949C15.2962 6.26716 9.79696 9.21484 4.29773 12.0704C3.7978 12.3467 3.59781 12.6231 3.59781 13.0837C3.59781 18.979 3.59781 24.8744 3.59781 30.7698C3.59781 31.2303 3.79776 31.5988 4.19771 31.783C5.59751 32.5199 6.99733 33.349 8.39713 33.9938C8.99705 34.2701 9.79691 34.4543 10.4968 34.5465C11.8966 34.6386 12.7965 33.7174 12.8965 32.5199C12.8965 32.2436 12.8965 31.9672 12.8965 31.783C12.8965 26.164 12.8965 20.6371 12.8965 15.0181C12.8965 14.0048 12.8965 14.0048 13.9963 14.0048C15.8961 14.0048 15.8961 13.7285 15.8961 15.755C15.8961 21.1898 15.8961 26.5325 15.8961 31.9673C15.8961 32.9805 15.7961 33.9938 15.3962 34.9149C14.7962 36.4809 13.3964 37.2178 11.6967 37.402C9.99689 37.5862 8.49709 37.2178 6.9973 36.3888C5.49751 35.6518 3.99776 34.8228 2.59795 34.0859C1.39812 33.4411 0.798218 32.5199 0.798218 31.3224C0.798218 25.1507 0.798218 19.0712 0.798218 12.8995C0.798218 11.6098 1.49808 10.5966 2.69792 9.95177C7.69722 7.28044 12.7965 4.60912 17.7958 1.84567C18.3958 1.56933 18.8956 1.20087 19.4956 0.924521C20.7954 0.279717 22.0952 0.279717 23.395 0.924521C29.0942 3.96431 34.6935 6.91198 40.3927 9.95177C41.5925 10.5966 42.1924 11.6098 42.1924 12.8995C42.1924 18.979 42.1924 25.0586 42.1924 31.0461C42.1924 32.4278 41.4925 33.4411 40.1927 34.0859C34.5935 37.0336 29.0942 40.0734 23.495 43.021C22.2952 43.6658 20.9954 43.7579 19.7956 43.1131C17.7958 42.0999 15.7961 40.9945 13.7964 39.8891C13.7964 39.797 13.6964 39.797 13.4964 39.7049Z" fill="black"/>
<path d="M26.7946 30.9537C24.5949 30.8616 22.4951 30.6774 20.4954 29.6642C18.6957 28.743 17.9958 27.177 17.7958 25.3347C17.7958 24.9663 17.9958 24.6899 18.3957 24.6899C18.5957 24.6899 18.6957 24.6899 18.8957 24.6899C19.4956 24.6899 20.0955 24.5057 20.4954 24.7821C20.7954 24.9663 20.8954 25.6111 21.0954 26.0716C21.6953 27.3613 22.8951 27.914 24.1949 28.0061C25.8947 28.0982 27.4944 28.0982 29.1942 28.0061C30.794 27.914 31.8939 27.0849 32.0938 25.8874C32.2938 24.9663 31.9938 24.3215 31.094 24.0451C29.9941 23.6767 28.7943 23.4925 27.5945 23.2161C25.5947 22.8477 23.595 22.6634 21.5953 22.2028C19.7955 21.7422 18.5957 20.6369 18.3957 18.7946C18.1958 16.7681 18.9956 15.2021 20.9953 14.281C22.0952 13.7283 23.395 13.4519 24.6948 13.2677C26.8945 13.0835 28.9943 13.1756 31.094 13.9125C33.2937 14.7415 34.3935 16.3075 34.5935 18.4261C34.5935 18.7946 34.4935 19.0709 33.9935 19.0709C33.8935 19.0709 33.6936 19.0709 33.5936 19.0709C32.4938 19.1631 31.4939 19.0709 31.294 17.7813C31.094 17.0444 30.3941 16.4917 29.5942 16.3075C27.4945 15.6627 25.3948 15.6627 23.2951 16.3075C22.7951 16.4917 22.2952 16.7681 21.9952 17.2286C21.1953 18.2419 21.6952 19.3473 22.9951 19.7158C24.2949 19.9921 25.4948 20.1763 26.7946 20.4527C28.4943 20.729 30.1941 21.0054 31.8938 21.3738C33.6936 21.7423 35.0934 22.7555 35.3934 24.5978C35.6933 26.4401 35.1934 28.0061 33.5936 29.2036C32.3938 30.1247 30.9939 30.4932 29.4942 30.6774C28.5943 30.8616 27.6945 30.8616 26.7946 30.9537Z" fill="black"/>
</svg>
