<svg width="69" height="44" viewBox="0 0 69 44" fill="none" xmlns="http://www.w3.org/2000/svg">
<path d="M0.175903 4.0565C2.27561 2.49055 4.67527 1.6615 7.17492 1.10881C9.07466 0.64824 11.0744 0.371884 12.9741 0.463999C16.7736 0.556114 20.3731 1.29306 23.3727 3.59593C24.7725 4.70131 25.9723 5.80664 27.1721 7.00413C29.2718 9.12278 31.1716 11.3336 33.3713 13.3601C35.571 15.4787 38.2706 16.9526 41.5701 17.5053C42.27 17.5974 43.0699 17.6895 43.8698 17.7816C42.67 18.5185 41.4701 18.9791 40.1703 19.1633C37.5707 19.5318 35.271 18.7948 33.3713 17.1368C32.4714 16.3077 31.5715 15.4787 30.1717 15.2945C29.0719 15.1102 27.872 15.2024 27.1721 16.1235C26.5722 16.8604 26.5722 17.5974 26.8722 18.4264C27.972 21.8347 30.5716 24.0454 33.9712 25.4271C35.8709 26.2561 37.9706 26.5325 40.0703 26.7167C42.27 26.901 44.4697 26.7168 46.5694 26.1641C46.6694 26.1641 46.7694 26.1641 46.8694 26.1641C46.8694 26.2562 46.7694 26.3483 46.7694 26.4404C44.2698 28.3748 41.5702 29.9408 38.2706 30.4013C35.471 30.8619 33.0713 30.3092 31.0716 28.4669C29.6718 27.1773 28.372 25.7035 27.0722 24.3218C25.9723 23.2164 24.8724 22.111 23.6726 21.0978C22.5728 20.1766 21.173 19.9924 19.6732 20.4529C17.8734 20.9135 17.2735 22.2031 17.6735 23.7691C18.6733 27.3615 21.173 29.5723 25.1724 30.2171C25.1724 30.2171 25.1724 30.2171 25.3724 30.4013C24.2725 30.4935 23.2727 30.5855 22.3728 30.4934C19.5732 30.3092 17.0736 29.2959 14.8739 27.9142C11.7743 25.8877 9.97453 23.1243 9.17464 19.716C8.7747 17.8737 8.67472 16.0314 8.67472 14.1891C8.67472 12.1626 8.27476 10.1361 7.47487 8.20167C6.67498 6.35937 5.37518 4.7934 3.17548 4.14859C2.57557 3.96437 1.97566 3.96438 1.37575 3.87226C0.875818 4.05649 0.575847 4.0565 0.175903 4.0565ZM11.7743 2.39839C10.4745 2.58262 9.27462 2.67473 7.9748 2.85896C8.57472 3.688 9.57458 4.05649 10.4745 3.87226C11.2743 3.68803 11.6743 3.22742 11.7743 2.39839Z" fill="black"/>
<path d="M14.2739 29.5721C15.2738 30.0327 16.1736 30.5854 17.1735 31.046C19.1732 31.9671 21.3729 32.5198 23.6726 32.4277C25.0724 32.4277 26.3722 32.0592 27.672 31.5986C28.8718 31.138 30.1717 31.046 31.3715 31.5065C31.5715 31.5986 31.7714 31.6907 31.9714 31.7829C31.2715 31.9671 30.5716 32.1513 29.9717 32.3355C29.0718 32.704 28.9719 33.6252 29.7718 34.0857C29.8717 34.1778 30.0717 34.27 30.2717 34.27C31.3715 34.6384 32.4713 34.8227 33.6712 34.9148C35.171 34.9148 36.6708 35.0069 38.1705 35.5596C39.1704 35.928 40.1703 36.5728 41.0702 37.0334C41.2701 37.1255 41.4701 37.4019 41.6701 37.5861C41.6701 37.5861 41.6701 37.6782 41.5701 37.6782C41.3701 37.6782 41.0702 37.5861 40.8702 37.5861C39.6704 37.4019 38.4705 37.0334 37.1707 36.9413C36.0708 36.8492 34.971 37.0334 33.9711 37.1255C31.9714 37.3097 30.0717 37.6782 28.072 37.5861C25.8723 37.4019 23.7726 36.7571 21.8728 35.7438C18.8733 34.1778 16.2736 32.3356 14.3739 29.6642C14.2739 29.7563 14.2739 29.7563 14.2739 29.5721Z" fill="black"/>
<path d="M32.4714 10.5964C33.9712 11.5176 35.3711 12.3466 37.0708 12.8072C39.1705 13.452 41.3702 13.8204 43.6699 13.6362C45.7696 13.452 47.7693 12.8993 49.869 12.3466C51.7688 11.8861 53.6685 11.886 55.4682 12.7151C57.9679 13.8204 58.9677 15.847 58.9677 18.242C58.4678 17.5972 58.0679 16.9524 57.4679 16.3997C56.4681 15.4785 55.2683 15.0179 53.8685 15.2943C52.6686 15.4785 51.3688 15.847 50.169 16.1233C44.7697 17.2287 39.7705 16.2155 35.2711 13.2678C34.0713 12.5309 33.1713 11.6097 32.4714 10.5964Z" fill="black"/>
<path d="M43.3699 31.2302C45.6696 30.4933 47.1693 28.743 48.8691 27.1771C50.3689 25.7033 51.9687 24.3215 54.1684 23.7688C56.0681 23.3083 57.9679 23.2162 59.7676 23.861C60.2675 24.0452 60.6675 24.2294 61.0674 24.5057V24.5979C60.3675 24.5979 59.7676 24.5057 59.0677 24.5057C58.1678 24.4136 57.3679 24.7821 56.768 25.3348C55.7682 26.2559 54.8683 27.2692 53.8684 28.0982C52.2686 29.5721 50.1689 30.309 47.9692 30.7696C46.5694 31.0459 45.1696 31.0459 43.7698 31.2302C43.5699 31.2302 43.4699 31.2302 43.3699 31.2302Z" fill="black"/>
<path d="M57.368 22.0187C56.7681 21.9265 56.0681 21.9265 55.4682 21.8344C53.2685 21.5581 51.2688 21.9265 49.4691 22.9398C47.7693 23.9531 45.9696 24.6899 44.0698 24.9663C41.6702 25.3347 39.2705 25.2427 36.9708 24.3215C36.8708 24.3215 36.7709 24.2294 36.7709 24.1373C37.2708 24.2294 37.6707 24.2294 38.1706 24.3215C40.1704 24.5979 41.8701 24.0452 43.4699 23.0319C45.1697 22.0186 46.8694 21.1896 48.8692 20.729C51.7688 20.0842 54.5683 20.2684 57.168 21.7423C57.168 21.7423 57.268 21.8344 57.368 22.0187Z" fill="black"/>
<path d="M28.6719 6.08277C31.8714 5.99065 34.671 6.63546 37.1707 8.38564C37.7706 8.84621 38.4705 9.30679 39.0704 9.76736C40.6702 10.8727 42.4699 11.2412 44.4697 10.8728C44.5696 10.8728 44.6697 10.8728 44.7697 10.8728C44.7697 10.8728 44.8696 10.8728 44.9696 10.8728C44.0697 11.3333 43.2699 11.6097 42.27 11.6097C38.2706 11.886 34.771 10.6885 31.6715 8.56988C30.7716 7.92508 29.9717 7.18815 29.1718 6.54334C28.9718 6.45123 28.8718 6.35911 28.6719 6.08277Z" fill="black"/>
<path d="M68.3664 29.8485C66.7667 30.8617 64.267 30.8617 62.8672 29.7563C62.2673 29.2957 61.6674 28.7431 61.0675 28.2825C60.1676 27.5456 58.9678 27.2692 57.7679 27.1771C59.9676 25.7954 62.5673 25.8875 64.567 27.4534C64.8669 27.7298 65.1669 27.914 65.4668 28.1903C66.1667 28.9273 67.1666 29.5721 68.3664 29.8485Z" fill="black"/>
<path d="M45.5695 43.4815C43.9698 43.5736 42.6699 42.9288 41.4701 41.9155C40.3702 40.9944 39.3704 39.889 37.9706 39.2442C37.4706 39.0599 37.0707 38.8757 36.5708 38.5994C38.5705 38.5073 40.5703 38.6915 42.27 39.889C42.9699 40.3495 43.5698 41.0865 44.1697 41.7313C44.5697 42.1918 45.0696 42.8367 45.5695 43.4815Z" fill="black"/>
<path d="M11.7744 2.39819C11.7744 3.22723 11.3744 3.68784 10.4745 3.87207C9.67462 4.0563 8.57477 3.6878 7.97485 2.85877C9.27467 2.67454 10.4746 2.58242 11.7744 2.39819Z" fill="white"/>
</svg>
