<svg width="54" height="44" viewBox="0 0 54 44" fill="none" xmlns="http://www.w3.org/2000/svg">
<path d="M44.1308 14.6495C43.5309 14.4653 43.0309 14.281 42.431 14.1889C42.531 13.8204 42.631 13.452 42.7309 13.0835C44.0308 7.28028 43.1309 2.67453 40.3313 1.10858C37.6317 -0.365257 33.0323 1.2007 28.5329 4.79318C28.133 5.16164 27.6331 5.53011 27.2331 5.89857C26.9332 5.62222 26.6332 5.43795 26.3332 5.1616C21.5339 1.29278 16.8346 -0.365257 13.935 1.10858C11.2354 2.58242 10.3355 6.91181 11.5353 12.4387C11.6353 12.9914 11.7353 13.5441 11.9353 14.0968C11.2354 14.281 10.6354 14.4653 9.93554 14.6495C4.33633 16.4918 0.736816 19.2552 0.736816 22.2029C0.736816 25.2426 4.5363 28.2825 10.4355 30.1248C10.9354 30.309 11.3353 30.4011 11.8353 30.4932C11.6353 31.0459 11.5353 31.6907 11.4353 32.2434C10.3355 37.5861 11.2354 41.9155 13.935 43.2972C16.7346 44.771 21.5339 43.2972 26.1333 39.5205C26.5332 39.2442 26.8332 38.8757 27.2331 38.5994C27.733 38.9678 28.133 39.4284 28.6329 39.7968C33.1323 43.3893 37.5317 44.771 40.3313 43.2972C43.1309 41.8234 44.1308 37.2176 42.9309 31.5986C42.8309 31.138 42.731 30.7696 42.631 30.309C42.9309 30.2169 43.3309 30.1247 43.6308 30.0326C49.63 28.1903 53.6294 25.1506 53.6294 22.1108C53.5295 19.2552 49.83 16.3997 44.1308 14.6495ZM29.9327 6.45123C33.8322 3.31933 37.4317 2.12185 39.1315 2.95088C40.9312 3.87203 41.6311 7.64874 40.4313 12.6229C40.3313 12.9914 40.2313 13.2677 40.2313 13.6362C37.9316 13.1756 35.532 12.8072 33.1323 12.6229C31.7325 10.7806 30.2327 9.12254 28.6329 7.46448C29.1329 7.09602 29.5328 6.72758 29.9327 6.45123ZM16.3346 24.69C16.8346 25.519 17.3345 26.3481 17.8344 27.1771C18.3344 28.0061 18.9343 28.8352 19.5342 29.6642C17.9344 29.48 16.2347 29.2957 14.6349 28.9273C15.0348 27.6377 15.6347 26.1638 16.3346 24.69ZM16.3346 19.8079C15.6347 18.3341 15.1348 16.9524 14.6349 15.5706C16.1347 15.2943 17.7345 15.0179 19.4342 14.8337C18.8343 15.6627 18.3344 16.4917 17.8344 17.3208C17.2345 18.1498 16.7346 18.9789 16.3346 19.8079ZM17.5345 22.295C18.2344 21.0054 18.9343 19.6237 19.7342 18.3341C20.534 17.0445 21.4339 15.7548 22.3338 14.5573C23.9336 14.4652 25.5334 14.3731 27.1332 14.3731C28.7329 14.3731 30.3327 14.4652 31.9325 14.5573C32.8323 15.7548 33.6322 17.0445 34.4321 18.3341C35.232 19.6237 36.0319 20.9132 36.7318 22.2029C36.0319 23.5846 35.232 24.8742 34.4321 26.1638C33.6322 27.4535 32.8323 28.743 31.9325 29.9405C30.3327 30.0326 28.7329 30.1248 27.1332 30.1248C25.5334 30.1248 23.9336 30.0326 22.3338 29.9405C21.4339 28.743 20.534 27.4535 19.7342 26.1638C18.9343 24.8742 18.1344 23.5846 17.5345 22.295ZM36.4318 27.1771C36.9318 26.3481 37.4317 25.4269 37.9316 24.5979C38.6315 25.9796 39.2314 27.4535 39.7314 28.9273C38.1316 29.2957 36.4318 29.48 34.8321 29.6642C35.332 28.8352 35.9319 28.0061 36.4318 27.1771ZM37.9316 19.8079C37.4317 18.9789 36.9318 18.1498 36.4318 17.3208C35.9319 16.4917 35.432 15.6627 34.8321 14.9258C36.5318 15.11 38.1316 15.3864 39.6314 15.6627C39.1315 17.0444 38.5315 18.4262 37.9316 19.8079ZM27.1332 8.93835C28.233 10.0437 29.2328 11.2412 30.2327 12.4387C28.133 12.3466 26.0333 12.3466 24.0336 12.4387C25.0334 11.1491 26.0333 9.95161 27.1332 8.93835ZM14.9348 2.95088C16.7346 2.02973 20.634 3.31932 24.7335 6.72757C25.0334 6.9118 25.2334 7.18815 25.5334 7.37238C23.9336 9.03045 22.4338 10.6885 21.034 12.5308C18.6343 12.715 16.3347 13.0835 14.035 13.5441C13.935 13.0835 13.735 12.5308 13.635 12.0702C12.6352 7.37236 13.3351 3.87203 14.9348 2.95088ZM12.4352 28.4667C12.0352 28.3746 11.5353 28.1903 11.1354 28.0982C8.53575 27.2692 6.43603 26.2559 4.93624 25.0585C3.63642 24.0452 2.93652 23.0319 2.93652 22.2029C2.93652 20.4527 5.83612 18.1498 10.5355 16.676C11.1354 16.4917 11.7353 16.3075 12.3352 16.1233C13.0351 18.2419 13.935 20.2685 14.9348 22.295C13.935 24.3215 13.1351 26.3481 12.4352 28.4667ZM24.6335 37.9545C22.6338 39.6126 20.534 40.8101 18.7343 41.3628C17.1345 41.9155 15.8347 41.9155 15.0348 41.4549C13.3351 40.5337 12.6352 37.1255 13.635 32.5197C13.735 31.9671 13.835 31.4144 14.035 30.8617C16.3347 31.3223 18.7343 31.6907 21.134 31.7828C22.5338 33.6251 24.0336 35.2832 25.6334 36.9412C25.3334 37.4018 24.9335 37.6782 24.6335 37.9545ZM27.1332 35.6517C26.0333 34.5463 25.0334 33.4409 23.9336 32.1513C24.9334 32.1513 25.9333 32.2434 27.0332 32.2434C28.133 32.2434 29.1328 32.2434 30.2327 32.1513C29.3328 33.3488 28.233 34.5463 27.1332 35.6517ZM40.8312 38.5072C40.5313 40.0732 39.9314 41.0864 39.1315 41.547C37.4317 42.4681 33.9322 41.2707 30.0327 38.2309C29.6328 37.8624 29.1328 37.4939 28.7329 37.1255C30.3327 35.4674 31.8325 33.7173 33.1323 31.9671C35.532 31.7828 37.9316 31.4143 40.2313 30.9538C40.3313 31.3222 40.4313 31.7829 40.5313 32.1513C41.1312 34.5463 41.2312 36.757 40.8312 38.5072ZM42.8309 28.0982C42.531 28.1903 42.231 28.2825 41.9311 28.3746C41.2312 26.2559 40.3313 24.2294 39.2314 22.2029C40.2313 20.2684 41.1312 18.2419 41.8311 16.1233C42.331 16.3075 42.9309 16.3996 43.4309 16.5839C48.3302 18.1498 51.3297 20.4527 51.3297 22.2029C51.2298 24.0452 48.0302 26.5323 42.8309 28.0982Z" fill="black"/>
<path d="M27.1331 26.5322C29.7328 26.5322 31.8324 24.5978 31.8324 22.2028C31.8324 19.8078 29.7328 17.8735 27.1331 17.8735C24.5335 17.8735 22.4338 19.8078 22.4338 22.2028C22.3338 24.5978 24.5335 26.5322 27.1331 26.5322Z" fill="black"/>
</svg>
