<svg width="79" height="45" viewBox="0 0 79 45" fill="none" xmlns="http://www.w3.org/2000/svg">
<path d="M0.113708 35.8359C1.31354 28.3746 8.01257 23.0319 16.0114 22.3871C24.3103 21.7423 31.3093 23.953 36.9086 29.7563C37.8084 30.7695 38.9083 31.5986 39.9081 32.5197C45.0074 36.5728 51.2065 36.4807 56.2058 32.3355C56.8058 31.7828 57.4057 31.3222 58.1056 30.6774C57.4057 36.757 51.3065 42.4682 44.2075 43.6657C35.7087 45.1395 28.1098 43.5735 21.9106 37.5861C20.8108 36.4807 19.611 35.4674 18.4111 34.4542C12.8119 29.7563 6.41279 29.9405 1.01355 34.8226C0.813574 35.0068 0.513653 35.3753 0.113708 35.8359Z" fill="black"/>
<path d="M78.2028 8.93837C76.703 16.0312 69.9039 21.466 61.905 22.1108C53.7062 22.7556 46.7072 20.637 41.108 14.9258C40.1081 13.9126 39.0083 12.9914 37.9084 12.0702C33.0091 8.1093 26.71 8.10933 21.8107 12.1624C21.1108 12.7151 20.5108 13.2678 19.7109 14.0047C20.3109 8.01722 26.61 2.12183 33.609 1.01645C42.3078 -0.457385 50.0067 1.29282 56.2058 7.3724C57.4057 8.47778 58.6055 9.58316 59.9053 10.5964C65.1046 14.7416 71.5037 14.5574 76.503 10.1359C77.0029 9.67528 77.3029 9.12258 77.7028 8.56989C77.9028 8.662 78.1028 8.75414 78.2028 8.93837Z" fill="black"/>
</svg>
