<svg width="48" height="45" viewBox="0 0 48 45" fill="none" xmlns="http://www.w3.org/2000/svg">
<path d="M0.124878 40.1653C0.124878 28.1904 0.124878 16.2154 0.124878 4.24048C0.224864 4.05625 0.324838 3.77996 0.424824 3.59573C0.924754 2.12189 1.92463 1.10861 3.62439 0.648038C3.92435 0.555923 4.12433 0.463819 4.3243 0.371704C17.3225 0.371704 30.3207 0.371704 43.3189 0.371704C43.5188 0.463819 43.7188 0.555923 43.9187 0.648038C45.6185 1.10861 46.7183 2.12186 47.2183 3.68782C47.3183 3.87205 47.4182 4.05625 47.5182 4.24048C47.5182 16.2154 47.5182 28.1904 47.5182 40.1653C47.4182 40.3495 47.3183 40.5338 47.2183 40.718C46.7183 42.284 45.6185 43.2972 43.9187 43.7578C43.7188 43.8499 43.5188 43.942 43.3189 44.0341C30.3207 44.0341 17.3225 44.0341 4.3243 44.0341C4.12433 43.942 3.92432 43.8499 3.72435 43.7578C2.02459 43.2972 0.924754 42.284 0.424824 40.718C0.324838 40.5338 0.224864 40.3495 0.124878 40.1653ZM42.9189 25.6112C42.9189 24.3215 42.9189 23.3083 42.9189 22.2029C42.9189 21.5581 42.7189 21.1896 41.919 21.0054C39.1194 20.2685 36.2198 20.1764 33.4202 21.0976C31.2205 21.7424 29.6207 23.0319 29.2208 25.1506C28.7209 27.6377 29.6207 29.5721 31.9204 30.9538C32.8203 31.4144 33.7202 31.7829 34.6201 32.2434C35.5199 32.6119 36.4198 32.9804 37.2197 33.5331C37.8196 33.9936 38.3195 34.7305 38.3195 35.2832C38.3195 36.1123 37.4196 36.5729 36.5198 36.7571C34.2201 37.2177 32.2204 36.6649 30.3207 35.5595C30.0207 35.3753 29.7207 35.1911 29.2208 34.9148C29.2208 36.2965 29.2208 37.4019 29.2208 38.5994C29.2208 39.2442 29.5208 39.6126 30.1207 39.7969C33.2203 40.718 36.4198 40.9023 39.6194 39.9811C41.919 39.2442 43.4188 37.7703 43.7188 35.4675C44.0187 33.2567 43.2189 31.4144 41.1191 30.2169C40.2193 29.6642 39.2194 29.2957 38.2195 28.8352C37.1197 28.2825 36.0198 27.8219 35.02 27.1771C33.9201 26.4402 34.1201 25.1506 35.4199 24.5979C35.8199 24.4137 36.2198 24.3216 36.6198 24.3216C38.8195 24.0452 40.8192 24.5058 42.9189 25.6112ZM16.9225 32.5198C16.9225 34.0857 16.9225 35.6517 16.9225 37.3098C16.9225 38.323 16.6226 39.7047 17.1225 40.1653C17.7224 40.718 19.2222 40.4417 20.3221 40.4417C21.8219 40.4417 21.8219 40.4417 21.8219 39.06C21.8219 34.6384 21.8219 30.309 21.8219 25.8875C21.8219 25.0585 22.0218 24.5979 23.0216 24.69C23.7215 24.7821 24.3215 24.69 25.0214 24.69C27.721 24.69 27.721 24.69 27.721 22.1108C27.721 20.8212 27.721 20.8212 26.3212 20.8212C22.1218 20.8212 18.0224 20.8212 13.823 20.8212C10.4235 20.8212 10.8234 20.1764 10.8234 23.7689C10.8234 24.4137 11.1234 24.69 11.8233 24.5979C13.1231 24.5979 14.4229 24.5979 15.7227 24.5979C16.6225 24.5979 16.9225 24.7821 16.8226 25.6112C16.8226 28.0061 16.9225 30.2169 16.9225 32.5198Z" fill="black"/>
</svg>
