<svg width="48" height="45" viewBox="0 0 48 45" fill="none" xmlns="http://www.w3.org/2000/svg">
<path d="M23.7585 44.0341C10.6603 44.0341 0.0617676 34.2699 0.0617676 22.2029C0.0617676 10.1358 10.7603 0.371704 23.7585 0.371704C36.8566 0.371704 47.4551 10.228 47.4551 22.2029C47.4551 34.2699 36.7566 44.0341 23.7585 44.0341ZM23.7585 1.66128C11.4602 1.66128 1.36155 10.9649 1.46154 22.295C1.46154 33.6252 11.5601 42.8366 23.8584 42.8366C36.1567 42.8366 46.1554 33.6252 46.1554 22.295C46.0554 10.8728 36.0567 1.66128 23.7585 1.66128Z" fill="black"/>
<path d="M18.8591 33.2566C16.4594 26.7165 14.0598 20.1763 11.7601 13.6362C12.46 13.5441 13.1599 13.5441 13.7598 13.4519C14.3597 13.3598 14.7597 13.0835 14.6597 12.6229C14.6597 12.1624 14.2598 11.886 13.5598 11.9781C11.8601 12.0702 10.2603 12.1624 8.56055 12.1624C8.1606 12.1624 7.76067 12.1624 7.26074 12.1624C10.1603 8.29355 13.9598 5.71432 18.7591 4.60894C25.5582 3.04299 31.5573 4.4247 36.8566 8.56987C36.1567 8.84621 35.4568 8.93832 34.9568 9.30678C33.657 10.1358 33.1571 11.7018 33.757 13.1756C34.157 14.0968 34.6569 15.0179 35.2568 15.9391C35.9567 17.0444 36.5566 18.1498 36.8566 19.4394C37.1565 20.8211 37.1566 22.295 36.7566 23.6767C35.7568 26.8086 34.7569 29.9406 33.757 33.0725C33.6571 33.0725 33.657 33.0725 33.5571 33.0725C31.2574 26.6244 28.8577 20.2685 26.458 13.7283C27.1579 13.6362 27.8579 13.6362 28.5578 13.5441C29.1577 13.452 29.4576 13.1756 29.4576 12.715C29.4576 12.2545 29.0576 11.9781 28.4577 12.0702C26.9579 12.1623 25.4581 12.2545 23.9584 12.2545C22.0586 12.2545 20.2589 12.1623 18.3592 12.0702C17.6593 12.0702 17.3593 12.2545 17.2593 12.715C17.2593 13.1756 17.4593 13.452 18.1592 13.5441C18.3592 13.5441 18.5592 13.6362 18.7591 13.6362C19.859 13.452 20.2589 14.0968 20.5589 14.9258C21.2588 17.0445 22.1586 19.071 22.9585 21.0975C23.0585 21.2818 23.0585 21.5581 22.9585 21.8344C21.6587 25.6111 20.2589 29.2958 18.8591 33.0725C18.9591 33.0725 18.8591 33.1645 18.8591 33.2566Z" fill="black"/>
<path d="M24.1583 24.0452C26.1581 29.1115 28.1578 34.2699 30.2575 39.4284C26.2581 40.718 22.2586 40.718 18.1592 39.7047C20.1589 34.4541 22.0586 29.2957 23.9584 24.0452C24.0583 24.0452 24.1583 24.0452 24.1583 24.0452Z" fill="black"/>
<path d="M15.0597 38.5072C5.16113 34.0857 1.56164 23.2162 5.76105 14.9258C8.86062 22.7556 11.9602 30.5854 15.0597 38.5072Z" fill="black"/>
<path d="M33.7571 37.7703C34.457 36.0201 35.0569 34.1778 35.7568 32.4277C37.2566 28.5588 38.6564 24.69 40.1562 20.8211C41.0561 18.5183 41.456 16.2154 41.1561 13.8204C42.9558 15.5706 44.0556 21.9266 43.0557 25.9796C41.8559 31.138 38.6564 35.0069 33.7571 37.7703Z" fill="black"/>
</svg>
